<svg width="17" height="15" viewBox="0 0 17 15" fill="none" xmlns="http://www.w3.org/2000/svg">
<path d="M16.5324 0.745437C15.8462 1.16444 15.096 1.46059 14.3139 1.62139C13.6491 0.902921 12.7271 0.497468 11.7639 0.500103C9.86634 0.485423 8.31147 2.04867 8.27889 4.00398C8.27969 4.27543 8.31103 4.54591 8.37239 4.80992C5.57777 4.67396 2.96774 3.33226 1.18138 1.11333C0.87583 1.64397 0.71162 2.24831 0.705411 2.8653C0.705484 4.05494 1.29125 5.1632 2.26094 5.80857C1.70717 5.78998 1.16546 5.63694 0.679918 5.36179C0.679918 5.36179 0.679918 5.36179 0.679918 5.4056C0.674366 7.11421 1.84852 8.58547 3.47644 8.90948C2.96328 9.05047 2.42595 9.0714 1.90396 8.97083C2.37329 10.4181 3.67885 11.4017 5.15943 11.4236C3.92684 12.4114 2.41134 12.9505 0.849971 12.9566C0.565892 12.9563 0.282033 12.9387 0 12.904C1.59958 13.9468 3.45372 14.4997 5.3465 14.4983C10.7441 14.5999 15.1998 10.1728 15.2984 4.6102C15.2994 4.55126 15.3 4.49231 15.3 4.43329C15.3 4.28146 15.3 4.12962 15.3 3.97778C15.9662 3.47461 16.5416 2.85499 17 2.14699C16.3619 2.43493 15.6859 2.62381 14.994 2.70759C15.7216 2.26864 16.2687 1.57087 16.5324 0.745437Z" fill="#AB83EC"/>
</svg>
